<svg width="42" height="41" viewBox="0 0 42 41" fill="none" xmlns="http://www.w3.org/2000/svg">
<rect opacity="0.7" x="1" y="0.620239" width="40" height="40" rx="20" fill="#E0593F"/>
<path d="M39.997 22.8476H38.0973C38.0973 15.4957 32.1513 9.54965 24.7994 9.54965H22.8997V7.13703C23.4774 6.80348 23.9572 6.32369 24.2906 5.74593C24.6241 5.16816 24.7996 4.51277 24.7994 3.84567C24.7992 3.17857 24.6234 2.52328 24.2896 1.94568C23.9559 1.36808 23.4759 0.888545 22.898 0.555291C22.3201 0.222038 21.6647 0.0468144 20.9976 0.047242C20.3305 0.0476695 19.6752 0.223733 19.0978 0.557727C18.5203 0.891721 18.0409 1.37187 17.7079 1.9499C17.3749 2.52792 17.1999 3.18344 17.2006 3.85054C17.2006 5.25632 17.9605 6.49113 19.1003 7.13703V9.54965H17.2006C9.84875 9.54965 3.90268 15.4957 3.90268 22.8476H2.00297C0.958138 22.8476 0.103271 23.7024 0.103271 24.7473V30.4464C0.103271 31.4912 0.958138 32.3461 2.00297 32.3461H3.90268V34.2458C3.90268 35.2534 4.30297 36.2198 5.0155 36.9324C5.72802 37.6449 6.69442 38.0452 7.70208 38.0452H34.2979C36.4066 38.0452 38.0973 36.3545 38.0973 34.2458V32.3461H39.997C41.0419 32.3461 41.8967 31.4912 41.8967 30.4464V24.7473C41.8967 23.7024 41.0419 22.8476 39.997 22.8476ZM38.0973 28.5467H34.2979V34.2458H7.70208V28.5467H3.90268V26.647H7.70208V22.8476C7.70208 17.6044 11.9574 13.3491 17.2006 13.3491H24.7994C30.0426 13.3491 34.2979 17.6044 34.2979 22.8476V26.647H38.0973V28.5467ZM18.5304 22.8476C19.2903 23.5885 19.2903 24.8423 18.5304 25.6021L17.1436 26.9889L14.351 29.7815L10.1717 25.6021C9.41182 24.8423 9.41182 23.5885 10.1717 22.8476C10.9506 22.0497 12.1854 22.0497 12.9643 22.8476L14.351 24.2154L15.7378 22.8476C16.5167 22.0497 17.7515 22.0497 18.5304 22.8476ZM31.8283 22.8476C32.5882 23.5885 32.5882 24.8423 31.8283 25.6021L30.4415 26.9889L27.649 29.7815L23.4696 25.6021C22.7097 24.8423 22.7097 23.5885 23.4696 22.8476C24.2485 22.0497 25.4833 22.0497 26.2622 22.8476L27.649 24.2154L29.0357 22.8476C29.8146 22.0497 31.0494 22.0497 31.8283 22.8476Z" fill="black"/>
</svg>
