<svg width="23" height="22" viewBox="0 0 23 22" fill="none" xmlns="http://www.w3.org/2000/svg">
<path d="M22.6616 4.75156C22.4564 4.39598 22.1625 4.09966 21.8086 3.8915C21.4548 3.68334 21.053 3.57045 20.6425 3.56384H5.43974L4.75086 0.879606C4.68126 0.620492 4.52598 0.392576 4.31031 0.23298C4.09464 0.0733845 3.83129 -0.00848831 3.56315 0.000696572H1.18772C0.872714 0.000696572 0.570614 0.12583 0.347874 0.34857C0.125134 0.57131 0 0.87341 0 1.18841C0 1.50341 0.125134 1.80551 0.347874 2.02825C0.570614 2.25099 0.872714 2.37613 1.18772 2.37613H2.66048L5.93858 14.5621C6.00818 14.8212 6.16346 15.0491 6.37913 15.2087C6.5948 15.3683 6.85815 15.4502 7.12629 15.441H17.8157C18.0351 15.4403 18.2499 15.3789 18.4365 15.2636C18.6231 15.1483 18.7741 14.9836 18.8728 14.7878L22.7685 6.99634C22.9374 6.64242 23.016 6.2522 22.9973 5.86051C22.9787 5.46882 22.8633 5.08783 22.6616 4.75156ZM17.0793 13.0656H8.02896L6.09298 5.93927H20.6425L17.0793 13.0656Z" fill="black"/>
<path d="M6.53255 21.3796C7.51649 21.3796 8.31412 20.582 8.31412 19.598C8.31412 18.6141 7.51649 17.8165 6.53255 17.8165C5.54861 17.8165 4.75098 18.6141 4.75098 19.598C4.75098 20.582 5.54861 21.3796 6.53255 21.3796Z" fill="black"/>
<path d="M18.4095 21.3796C19.3934 21.3796 20.1911 20.582 20.1911 19.598C20.1911 18.6141 19.3934 17.8165 18.4095 17.8165C17.4256 17.8165 16.6279 18.6141 16.6279 19.598C16.6279 20.582 17.4256 21.3796 18.4095 21.3796Z" fill="black"/>
</svg>
