<svg width="20" height="18" viewBox="0 0 20 18" fill="none" xmlns="http://www.w3.org/2000/svg">
<rect opacity="0.7" width="18" height="18" rx="9" fill="#E0593F"/>
<path d="M1.45723 13.2154H0.718555C0.527983 13.2154 0.345215 13.1397 0.21046 13.005C0.0757047 12.8702 0 12.6875 0 12.4969V1.71856C0 1.52798 0.0757047 1.34522 0.21046 1.21046C0.345215 1.0757 0.527983 1 0.718555 1H13.6526C13.8431 1 14.0259 1.0757 14.1606 1.21046C14.2954 1.34522 14.3711 1.52798 14.3711 1.71856V3.87422H18.0659C18.2375 3.87429 18.4034 3.93576 18.5336 4.04752C18.6639 4.15928 18.7498 4.31395 18.7759 4.48356L19.9917 12.3877C20.0074 12.49 20.0008 12.5946 19.9724 12.6942C19.9439 12.7938 19.8943 12.8861 19.8269 12.9647C19.7595 13.0433 19.6758 13.1064 19.5817 13.1497C19.4876 13.193 19.3853 13.2154 19.2817 13.2154H17.2266C17.2764 13.6672 17.2303 14.1243 17.0914 14.5571C16.9526 14.9898 16.7241 15.3884 16.4208 15.7269C16.1175 16.0654 15.7463 16.3361 15.3313 16.5215C14.9164 16.7068 14.467 16.8026 14.0125 16.8026C13.5581 16.8026 13.1087 16.7068 12.6938 16.5215C12.2788 16.3361 11.9076 16.0654 11.6043 15.7269C11.301 15.3884 11.0725 14.9898 10.9337 14.5571C10.7948 14.1243 10.7487 13.6672 10.7985 13.2154H7.88399C7.9337 13.6672 7.88762 14.1243 7.74877 14.5571C7.60991 14.9898 7.3814 15.3884 7.07812 15.7269C6.77485 16.0654 6.40363 16.3361 5.98868 16.5215C5.57373 16.7068 5.12436 16.8026 4.66989 16.8026C4.21542 16.8026 3.76606 16.7068 3.35111 16.5215C2.93615 16.3361 2.56494 16.0654 2.26166 15.7269C1.95839 15.3884 1.72987 14.9898 1.59101 14.5571C1.45216 14.1243 1.40608 13.6672 1.45579 13.2154H1.45723ZM1.98178 11.7783C2.27673 11.3355 2.67651 10.9723 3.14558 10.7211C3.61466 10.47 4.13852 10.3385 4.67061 10.3385C5.2027 10.3385 5.72656 10.47 6.19564 10.7211C6.66471 10.9723 7.06449 11.3355 7.35944 11.7783H11.3244C11.7081 11.2035 12.2729 10.7594 12.9354 10.5252V2.43711H1.43711V11.7783H1.98178V11.7783ZM16.7007 11.7783H18.4439L18.0027 8.90411H14.3711V10.3613C14.8392 10.4136 15.2902 10.5675 15.6926 10.8123C16.0949 11.057 16.439 11.3867 16.7007 11.7783V11.7783ZM17.7814 7.467L17.4508 5.31133H14.3711V7.467H17.7814ZM14.0118 15.3711C14.4883 15.3711 14.9452 15.1818 15.2821 14.845C15.619 14.5081 15.8082 14.0512 15.8082 13.5747C15.8082 13.0983 15.619 12.6414 15.2821 12.3045C14.9452 11.9676 14.4883 11.7783 14.0118 11.7783C13.5354 11.7783 13.0785 11.9676 12.7416 12.3045C12.4047 12.6414 12.2154 13.0983 12.2154 13.5747C12.2154 14.0512 12.4047 14.5081 12.7416 14.845C13.0785 15.1818 13.5354 15.3711 14.0118 15.3711ZM4.67061 15.3711C5.14704 15.3711 5.60396 15.1818 5.94085 14.845C6.27774 14.5081 6.467 14.0512 6.467 13.5747C6.467 13.0983 6.27774 12.6414 5.94085 12.3045C5.60396 11.9676 5.14704 11.7783 4.67061 11.7783C4.19418 11.7783 3.73726 11.9676 3.40037 12.3045C3.06348 12.6414 2.87422 13.0983 2.87422 13.5747C2.87422 14.0512 3.06348 14.5081 3.40037 14.845C3.73726 15.1818 4.19418 15.3711 4.67061 15.3711V15.3711Z" fill="black"/>
</svg>
