<svg width="18" height="18" viewBox="0 0 18 18" fill="none" xmlns="http://www.w3.org/2000/svg">
<rect opacity="0.7" width="18" height="18" rx="9" fill="#FFE66B"/>
<path d="M8.92105 0C10.3407 0 11.7021 0.563936 12.7059 1.56775C13.7097 2.57156 14.2737 3.93303 14.2737 5.35263V6.24474H17.8421V8.02895H16.801L16.1257 16.1319C16.1071 16.3549 16.0055 16.5627 15.8409 16.7142C15.6763 16.8657 15.4609 16.9499 15.2372 16.95H2.60495C2.38125 16.9499 2.16576 16.8657 2.00119 16.7142C1.83662 16.5627 1.73498 16.3549 1.71641 16.1319L1.04019 8.02895H0V6.24474H3.56842V5.35263C3.56842 3.93303 4.13236 2.57156 5.13617 1.56775C6.13998 0.563936 7.50145 0 8.92105 0V0ZM15.0106 8.02895H2.83065L3.42568 15.1658H14.4155L15.0106 8.02895ZM9.81316 9.81316V13.3816H8.02895V9.81316H9.81316ZM6.24474 9.81316V13.3816H4.46053V9.81316H6.24474ZM13.3816 9.81316V13.3816H11.5974V9.81316H13.3816ZM8.92105 1.78421C8.00554 1.78421 7.12504 2.13609 6.46169 2.76706C5.79833 3.39804 5.40287 4.25984 5.35709 5.17421L5.35263 5.35263V6.24474H12.4895V5.35263C12.4895 4.43712 12.1376 3.55662 11.5066 2.89327C10.8756 2.22991 10.0138 1.83445 9.09947 1.78867L8.92105 1.78421Z" fill="black"/>
</svg>
