<svg width="11" height="22" viewBox="0 0 11 22" fill="none" xmlns="http://www.w3.org/2000/svg">
<path d="M9.17485 21.9999C8.94004 22.0007 8.70804 21.9489 8.49589 21.8483C8.28375 21.7477 8.09684 21.6008 7.94891 21.4185L0.357546 11.9908C0.126375 11.7097 0 11.357 0 10.9931C0 10.6291 0.126375 10.2765 0.357546 9.99531L8.2161 0.567629C8.48288 0.246747 8.86624 0.0449563 9.28184 0.00664887C9.69745 -0.0316585 10.1112 0.0966552 10.4322 0.363362C10.7532 0.630069 10.955 1.01332 10.9934 1.42881C11.0317 1.8443 10.9033 2.25799 10.6365 2.57887L3.61099 11.0009L10.4008 19.423C10.593 19.6536 10.7151 19.9345 10.7526 20.2323C10.7901 20.5302 10.7415 20.8325 10.6126 21.1036C10.4836 21.3747 10.2797 21.6032 10.0249 21.762C9.77007 21.9208 9.4751 22.0034 9.17485 21.9999Z" fill="white"/>
</svg>
