<svg width="154" height="52" viewBox="0 0 154 52" fill="none" xmlns="http://www.w3.org/2000/svg">
<g clip-path="url(#clip0_5_2)">
<path d="M23.8624 11.7721C23.8624 11.7721 13.5032 7.96679 8.01366 14.0554C2.52411 20.1439 0.40168 22.8028 0.525654 25.5307C0.649627 28.2587 -1.56206 42.2249 9.23356 47.5376C19.7168 52.6921 28.4594 54.234 38.1789 45.3483C38.1789 45.3483 46.1231 39.8676 38.0153 22.3728C38.0103 22.3728 31.8513 13.4623 23.8624 11.7721Z" fill="#E0593F"/>
<path d="M20.9813 51.3032C17.9365 51.3032 15.1744 49.791 11.5791 47.8339C10.5973 47.3002 9.58563 46.7418 8.46987 46.1685C4.62173 44.1768 2.05299 40.8706 0.833093 36.3437C-0.158696 32.652 -0.0248046 29.0641 0.0545385 26.9193C0.0743742 26.3312 0.09421 25.8617 0.0793332 25.5652C-0.0446404 22.8767 2.04803 20.3217 7.21525 14.7075C9.40711 12.3205 12.7594 11.1888 16.91 11.4211C19.8655 11.5891 22.2061 12.3798 22.5037 12.4836C26.4609 13.3139 29.9173 15.9628 32.129 18.0385C34.5142 20.2871 35.9523 22.3084 36.0118 22.3973L36.0416 22.4517C39.4186 29.1778 38.8236 34.5399 37.7276 37.851C36.5375 41.4538 34.5638 43.4306 34.4795 43.5146C28.4395 49.2622 24.522 51.3032 20.9813 51.3032ZM15.8438 12.2316C13.0916 12.2316 10.0121 12.8938 7.8252 15.266C2.82659 20.7022 0.79838 23.1535 0.912436 25.5256C0.927313 25.8567 0.912436 26.3411 0.887641 26.9489C0.728955 31.1645 0.361994 41.0387 8.86162 45.4272C9.98235 46.0054 10.9989 46.5638 11.9858 47.1025C19.6275 51.2785 23.1186 53.1812 33.9043 42.9166C33.9192 42.9018 35.8333 40.9744 36.954 37.5496C37.9855 34.3966 38.5359 29.2915 35.3126 22.852C35.144 22.6148 33.7357 20.6923 31.5438 18.6315C29.4115 16.625 26.0791 14.07 22.3103 13.2892L22.2557 13.2744C22.1962 13.2546 19.2754 12.2316 15.8438 12.2316Z" fill="black"/>
<path d="M25.0724 20.0992C25.0724 20.0992 31.524 19.6989 32.5554 15.4537C33.5869 11.2085 38.9178 7.76886 38.9178 7.76886C38.9178 7.76886 33.9886 5.57955 28.4742 15.0485C28.4742 15.0485 25.3798 17.8605 24.7104 16.9709C24.0409 16.0814 29.3272 12.7702 29.6842 7.94678C30.0412 3.12336 31.7868 0 31.7868 0C31.7868 0 26.4609 3.35069 21.621 15.3648C21.621 15.3648 19.1564 6.79034 12.432 2.36723C12.432 2.36723 15.9727 8.66337 15.6603 11.8806C15.3479 15.0979 17.4059 16.9709 17.4059 16.9709C17.4059 16.9709 13.9098 16.8375 12.2089 14.2479C10.508 11.6582 6.42676 17.732 6.42676 17.732C6.42676 17.732 10.5972 14.6037 13.9544 18.9378C17.3116 23.272 25.0724 20.0992 25.0724 20.0992Z" fill="#82C073"/>
<path d="M19.082 22.0661C17.024 22.0661 15.4272 21.394 14.4206 20.0942C12.0452 17.0301 9.14922 19.1256 9.02525 19.2145L7.0863 20.6527L8.43018 18.6561C8.66821 18.3002 10.8006 15.1967 12.5015 15.1967H12.5064C12.8436 15.1967 13.3296 15.3202 13.7065 15.8935C14.4355 17.0054 15.6405 17.4898 16.4984 17.7023C16.0322 16.961 15.5314 15.765 15.6851 14.1984C15.9182 11.8064 13.2056 6.94347 13.1759 6.89405L12.3378 5.4065L13.766 6.34549C17.9464 9.09326 20.0787 13.7388 20.8623 15.8243C24.5914 7.1115 28.499 4.58119 28.6676 4.47246L30.0363 3.61255L29.2577 5.02103C29.2429 5.04574 27.9188 7.47721 27.6411 11.159C27.4527 13.6696 25.7121 15.6513 24.5567 16.961C24.2393 17.3217 23.8624 17.7467 23.7136 17.9988C24.1302 17.8999 25.0922 17.2575 25.9402 16.4964C30.438 8.8165 34.5489 10.5314 34.7225 10.6055L35.4217 10.9169L34.777 11.332C34.7374 11.3567 30.676 14.0106 29.9074 17.1735C29.5404 18.6907 28.3155 19.8669 26.3716 20.5686C25.117 21.0233 23.9566 21.1419 23.6641 21.1666C23.3467 21.2902 21.9235 21.814 20.2027 21.9969C19.8159 22.0463 19.439 22.0661 19.082 22.0661ZM11.4452 17.6133C12.5808 17.6133 13.89 18.063 15.0752 19.5901C17.515 22.7332 23.3467 20.4056 23.4062 20.3808L23.4707 20.3561L23.5401 20.3512C23.5897 20.3462 28.3651 20.0102 29.0991 16.9807C29.7239 14.4109 32.1736 12.2413 33.4877 11.2332C32.1587 11.243 29.5156 12.0091 26.6295 16.9659L26.5997 17.0203L26.5502 17.0647C26.0691 17.4996 24.4327 18.918 23.5054 18.829C23.2723 18.8093 23.0789 18.7055 22.95 18.5276C22.5433 17.9889 23.0987 17.3613 23.9368 16.4075C25.0178 15.1818 26.6493 13.3236 26.813 11.0898C26.9618 9.0636 27.4081 7.41791 27.8097 6.28618C27.4527 6.64201 27.0411 7.08679 26.5849 7.6403C25.2112 9.30576 23.1682 12.3105 21.2143 17.1537L20.7631 18.2854L20.4308 17.124C20.4159 17.0647 18.8192 11.673 14.7479 8.1345C15.576 9.85927 16.6868 12.5576 16.5182 14.2824C16.2951 16.5804 17.7133 17.9197 17.7728 17.9741L18.596 18.7351L17.4753 18.6907C17.3513 18.6857 14.4702 18.5523 13.0172 16.3432C12.8288 16.0566 12.6453 16.022 12.5114 16.022C12.5114 16.022 12.5114 16.022 12.5064 16.022C11.8667 16.022 10.9245 16.8769 10.1311 17.7962C10.5229 17.6924 10.9692 17.6133 11.4452 17.6133Z" fill="black"/>
<path d="M20.2572 20.2672C19.8159 20.2672 19.3944 20.1931 19.077 20.0992L18.839 20.03L17.8274 15.251C17.7728 14.9842 17.3166 12.6466 18.3381 11.6631C18.6258 11.3864 19.1564 11.1047 20.0391 11.3271L20.2225 11.3715L20.3068 11.5396C20.3366 11.5939 21.006 12.8937 21.6259 14.4257C22.4937 16.5804 22.7913 18.0235 22.5384 18.834C22.1912 19.9509 21.1747 20.2672 20.2572 20.2672ZM19.5432 19.3628C20.0936 19.4765 21.4176 19.6247 21.7449 18.5869C22.0871 17.4997 20.6788 14.1094 19.6572 12.098C19.1663 12.0239 18.9778 12.2018 18.9134 12.2661C18.3877 12.7652 18.4671 14.2626 18.6357 15.0879L19.5432 19.3628Z" fill="black"/>
<path d="M18.3828 15.5525L18.0803 14.7816L18.234 15.167L18.0803 14.7816C18.1546 14.7519 19.925 14.0106 19.5332 11.8015L20.3515 11.6582C20.7631 13.9661 19.2456 15.2165 18.3828 15.5525Z" fill="black"/>
<path d="M58.9138 18.434V23.7912C58.9138 24.6906 59.0675 25.3133 59.38 25.6642C59.6874 26.0151 60.3321 26.193 61.3139 26.193H61.7206V27.7992H51.1134V26.193H51.406C52.3829 26.193 53.0226 26.0102 53.3152 25.6494C53.6127 25.2886 53.7565 24.6659 53.7565 23.7912V12.1478C53.7565 11.2483 53.6028 10.6256 53.3003 10.2747C52.9928 9.92385 52.363 9.74594 51.406 9.74594H51.0588V8.16943H67.5771L67.706 13.3684H66.0646C65.8216 12.4789 65.5142 11.7623 65.1323 11.2088C64.7505 10.6553 64.3637 10.2994 63.9571 10.1364C63.5504 9.97327 62.9306 9.88926 62.0975 9.88926H58.9138V16.6648H60.466C61.1999 16.6648 61.7107 16.5066 61.9983 16.1953C62.2859 15.8839 62.4595 15.2365 62.5289 14.263H64.1554V21.0088H62.5289C62.4793 19.9562 62.3107 19.2643 62.0181 18.9332C61.7255 18.6021 61.1999 18.434 60.4362 18.434H58.9138Z" fill="black"/>
<path d="M66.6299 21.8341C66.6299 19.8474 67.339 18.2858 68.7523 17.159C70.1656 16.0273 71.8764 15.4639 73.8799 15.4639C75.8386 15.4639 77.5396 16.0124 78.9925 17.1096C80.4455 18.2067 81.1695 19.7881 81.1695 21.849C81.1695 23.8109 80.4554 25.3677 79.0322 26.534C77.609 27.6954 75.8833 28.2785 73.86 28.2785C71.8864 28.2785 70.1854 27.725 68.7622 26.623C67.344 25.5159 66.6299 23.9197 66.6299 21.8341ZM71.6136 21.6908C71.6136 23.5441 71.7872 24.8389 72.1293 25.5802C72.4715 26.3166 73.0715 26.6872 73.9245 26.6872C74.6138 26.6872 75.1593 26.3808 75.5758 25.7581C75.9874 25.1403 76.1957 23.8208 76.1957 21.8045C76.1957 19.971 76.0122 18.7256 75.6452 18.0782C75.2783 17.4259 74.6981 17.0997 73.8997 17.0997C73.2699 17.0997 72.7343 17.3764 72.288 17.9299C71.8368 18.4884 71.6136 19.7437 71.6136 21.6908Z" fill="black"/>
<path d="M83.3663 21.8341C83.3663 19.8474 84.0755 18.2858 85.4888 17.159C86.9021 16.0273 88.6129 15.4639 90.6163 15.4639C92.5751 15.4639 94.276 16.0124 95.729 17.1096C97.1819 18.2067 97.9059 19.7881 97.9059 21.849C97.9059 23.8109 97.1919 25.3677 95.7686 26.534C94.3454 27.6954 92.6197 28.2785 90.5965 28.2785C88.6228 28.2785 86.9219 27.725 85.4987 26.623C84.0804 25.5159 83.3663 23.9197 83.3663 21.8341ZM88.3501 21.6908C88.3501 23.5441 88.5236 24.8389 88.8658 25.5802C89.208 26.3166 89.808 26.6872 90.6609 26.6872C91.3502 26.6872 91.8957 26.3808 92.3123 25.7581C92.7239 25.1403 92.9321 23.8208 92.9321 21.8045C92.9321 19.971 92.7486 18.7256 92.3817 18.0782C92.0147 17.4259 91.4345 17.0997 90.6361 17.0997C90.0064 17.0997 89.4708 17.3764 89.0245 17.9299C88.5732 18.4884 88.3501 19.7437 88.3501 21.6908Z" fill="black"/>
<path d="M110.199 26.1485C109.52 26.786 108.801 27.2654 108.042 27.5915C107.283 27.9128 106.48 28.0758 105.637 28.0758C104.08 28.0758 102.781 27.5767 101.744 26.5784C100.708 25.5801 100.192 24.058 100.192 22.012C100.192 19.7436 100.772 18.088 101.938 17.0403C103.098 15.9926 104.482 15.4687 106.078 15.4687C106.961 15.4687 107.744 15.5972 108.434 15.8592C109.123 16.1211 109.713 16.5115 110.204 17.0304V12.3553C110.204 11.6337 110.09 11.1296 109.862 10.8578C109.634 10.5811 109.103 10.4476 108.27 10.4476V8.90079L114.895 7.82837V23.9196C114.895 24.74 115.034 25.2688 115.307 25.506C115.585 25.7432 116.115 25.8618 116.899 25.8618V27.4976C114.072 27.6064 111.955 27.7991 110.551 28.0758C110.318 27.5767 110.199 26.9342 110.199 26.1485ZM110.199 24.1519V18.7651C109.783 18.3598 109.366 18.0584 108.945 17.8607C108.523 17.663 108.106 17.5642 107.69 17.5642C106.847 17.5642 106.217 17.8953 105.796 18.5624C105.374 19.2296 105.166 20.2329 105.166 21.5721C105.166 23.0202 105.359 24.1074 105.741 24.8289C106.123 25.5505 106.698 25.9162 107.462 25.9162C107.983 25.9162 108.508 25.7531 109.039 25.4319C109.559 25.1106 109.946 24.6856 110.199 24.1519Z" fill="black"/>
<path d="M124.729 15.4637V24.3396C124.729 25.071 124.843 25.5751 125.076 25.8518C125.309 26.1286 125.85 26.262 126.703 26.262V27.799H117.811V26.262H118.143C118.967 26.262 119.487 26.1187 119.705 25.8271C119.924 25.5355 120.033 25.0413 120.033 24.3346V20.0202C120.033 19.3036 119.924 18.8045 119.701 18.5228C119.477 18.2362 118.962 18.0978 118.148 18.0978H117.816V16.5608L124.729 15.4637ZM119.834 10.4426C119.834 9.72598 120.092 9.11317 120.603 8.59426C121.114 8.08029 121.734 7.81836 122.448 7.81836C123.172 7.81836 123.787 8.07535 124.293 8.58437C124.798 9.09834 125.046 9.7161 125.046 10.4376C125.046 11.1592 124.793 11.7819 124.283 12.2909C123.772 12.8049 123.162 13.0569 122.443 13.0569C121.699 13.0569 121.074 12.795 120.578 12.2662C120.082 11.7473 119.834 11.1345 119.834 10.4426Z" fill="black"/>
<path d="M134.751 17.5048V24.3397C134.751 25.0563 134.86 25.5554 135.083 25.8371C135.306 26.1237 135.817 26.2621 136.625 26.2621H137.394V27.7991H127.665V26.2621H128.175C128.999 26.2621 129.514 26.1188 129.727 25.8272C129.941 25.5356 130.045 25.0414 130.045 24.3347V17.5048H127.665V15.9432H130.045C130.045 14.4013 130.104 13.23 130.218 12.4393C130.332 11.6485 130.655 10.8924 131.175 10.1758C131.696 9.45923 132.435 8.88101 133.382 8.45106C134.329 8.0211 135.47 7.80859 136.794 7.80859C138.326 7.80859 139.482 8.07052 140.265 8.58943C141.049 9.10835 141.44 9.77552 141.44 10.586C141.44 11.1543 141.232 11.6485 140.811 12.0686C140.389 12.4887 139.883 12.6963 139.293 12.6963C138.153 12.6963 137.394 11.9747 137.027 10.5267C136.853 9.81011 136.501 9.45429 135.966 9.45429C135.529 9.45429 135.217 9.67668 135.029 10.1215C134.84 10.5662 134.746 11.3323 134.746 12.4244V15.9432H137.389V17.5048H134.751Z" fill="black"/>
<path d="M147.406 23.7021L149.34 19.62C149.677 18.8886 149.851 18.424 149.851 18.2313C149.851 17.7222 149.439 17.4653 148.616 17.4653V15.9431H153.367V17.4653C152.797 17.5246 152.39 17.7025 152.152 17.999C151.914 18.3005 151.378 19.3086 150.545 21.0235L145.894 30.6407C144.981 32.5335 144.252 33.7641 143.702 34.3324C143.151 34.9007 142.452 35.1874 141.609 35.1874C140.979 35.1874 140.464 34.9996 140.057 34.624C139.65 34.2484 139.447 33.7838 139.447 33.2353C139.447 32.3012 140.102 31.6736 141.411 31.3524C142.621 31.0707 143.424 30.7593 143.816 30.4134C144.208 30.0674 144.639 29.3755 145.115 28.3427L139.943 19.4964L139.71 19.0615C139.323 18.34 139.03 17.9002 138.837 17.7519C138.644 17.6036 138.311 17.5097 137.835 17.4702V15.9481H145.552V17.4702C144.788 17.4999 144.406 17.6975 144.406 18.0632C144.406 18.2066 144.56 18.5624 144.872 19.1208L147.406 23.7021Z" fill="black"/>
<path d="M62.5983 51.5208L55.2739 36.2154V46.3663C55.2739 47.2756 55.3384 47.9428 55.4624 48.3728C55.5863 48.8027 55.8789 49.1684 56.3401 49.4649C56.8013 49.7664 57.3616 49.9147 58.0162 49.9147V51.5208H50.9249V49.9147C51.5448 49.9147 52.0804 49.7516 52.5366 49.4304C52.9928 49.1091 53.2705 48.7335 53.3697 48.3135C53.4689 47.8934 53.5234 47.2213 53.5234 46.2922V35.9732C53.5234 34.9898 53.3498 34.3275 53.0077 33.9964C52.6655 33.6653 51.9713 33.4973 50.9249 33.4973V31.8911H58.8146L64.8893 44.7898L71.0186 31.8911H78.938V33.4973H78.5462C77.5594 33.4973 76.9148 33.6801 76.6222 34.0409C76.3246 34.4017 76.1808 35.0244 76.1808 35.8991V47.5129C76.1808 48.4123 76.3346 49.035 76.6371 49.3859C76.9445 49.7368 77.5793 49.9147 78.5462 49.9147H78.9975V51.5208H68.2763V49.9147H68.668C69.6449 49.9147 70.2846 49.7318 70.5772 49.3711C70.8748 49.0103 71.0186 48.3876 71.0186 47.5129V35.9732L63.724 51.5208H62.5983Z" fill="black"/>
<path d="M89.1435 50.2656C88.4344 50.7796 87.6955 51.1601 86.9268 51.4171C86.1582 51.6741 85.3499 51.8026 84.5069 51.8026C83.3911 51.8026 82.558 51.5506 82.0026 51.0514C81.4472 50.5473 81.1695 49.9246 81.1695 49.1833C81.1695 48.1307 81.7249 47.2016 82.8407 46.3911C83.9564 45.5806 85.9698 44.6811 88.8856 43.6977V42.6253C88.8856 41.8642 88.7021 41.3749 88.3352 41.1575C87.9682 40.94 87.5318 40.8313 87.026 40.8313C85.8061 40.8313 85.1267 41.2761 84.9928 42.1657C84.8937 42.7735 84.7003 43.2134 84.4127 43.4901C84.125 43.7669 83.6738 43.9003 83.0638 43.9003C82.5134 43.9003 82.072 43.752 81.7497 43.4605C81.4274 43.1639 81.2637 42.8229 81.2637 42.4276C81.2637 41.5281 81.8588 40.7671 83.0489 40.1394C84.2391 39.5118 85.8309 39.2004 87.8294 39.2004C88.9451 39.2004 89.8774 39.2696 90.6262 39.4031C91.375 39.5365 91.98 39.7885 92.4412 40.1543C92.9024 40.52 93.2049 40.9054 93.3586 41.3107C93.5074 41.7159 93.5817 42.2645 93.5817 42.9613V48.4618C93.5817 49.2921 93.8346 49.7072 94.3355 49.7072C94.7719 49.7072 95.0496 49.4354 95.1636 48.8967H96.3687C96.3389 49.89 95.972 50.6264 95.2727 51.0959C94.5686 51.5703 93.7305 51.8075 92.7536 51.8075C90.9634 51.7977 89.7634 51.2886 89.1435 50.2656ZM88.8807 48.699V45.3088C87.5318 45.8672 86.6541 46.3763 86.2425 46.8309C85.8309 47.2856 85.6226 47.7551 85.6226 48.2345C85.6226 48.6002 85.7416 48.9313 85.9846 49.2278C86.2276 49.5243 86.545 49.6677 86.9417 49.6677C87.2888 49.6677 87.626 49.5836 87.9434 49.4205C88.2707 49.2575 88.5782 49.0202 88.8807 48.699Z" fill="black"/>
<path d="M103.668 42.1705C104.229 41.1772 104.868 40.4309 105.587 39.9318C106.306 39.4326 107.095 39.1855 107.958 39.1855C108.781 39.1855 109.406 39.4425 109.832 39.9614C110.259 40.4804 110.472 41.0388 110.472 41.6467C110.472 42.215 110.303 42.7043 109.961 43.1095C109.624 43.5148 109.148 43.7174 108.538 43.7174C108.211 43.7174 107.938 43.6531 107.725 43.5296C107.511 43.406 107.229 43.1441 106.882 42.7487C106.535 42.3633 106.158 42.1705 105.746 42.1705C105.116 42.1705 104.645 42.556 104.328 43.322C104.01 44.088 103.857 45.2395 103.857 46.7765V48.0664C103.857 48.783 103.966 49.2821 104.189 49.5638C104.412 49.8504 104.923 49.9888 105.731 49.9888H106.024V51.5258H97.2068V49.9888C98.0498 49.9888 98.5804 49.8504 98.8036 49.5687C99.0267 49.287 99.1358 48.7879 99.1358 48.0614V43.92C99.1358 43.1886 99.0217 42.6845 98.7936 42.4077C98.5655 42.131 98.025 41.9976 97.1721 41.9976V40.4606L103.202 39.1855C103.475 39.9713 103.629 40.9647 103.668 42.1705Z" fill="black"/>
<path d="M117.325 46.8012V48.0614C117.325 48.7483 117.429 49.2327 117.633 49.5144C117.836 49.801 118.262 49.9542 118.912 49.9839V51.5208H110.631V49.9839C111.474 49.9839 112.019 49.8554 112.267 49.5934C112.515 49.3315 112.639 48.8225 112.639 48.0565V36.0325C112.639 35.3011 112.525 34.797 112.292 34.5203C112.059 34.2435 111.508 34.1101 110.636 34.1101V32.5731L117.335 31.5452V44.8936L120.429 42.6795C121.02 42.2446 121.317 41.9135 121.317 41.6813C121.317 41.5478 121.263 41.4342 121.149 41.3403C121.039 41.2464 120.692 41.2019 120.112 41.2019V39.6649H126.737V41.2019C125.661 41.2019 124.451 41.6862 123.107 42.6499L121.972 43.4456L124.992 47.4832C125.716 48.4568 126.271 49.119 126.653 49.4649C127.035 49.8109 127.412 49.9839 127.779 49.9839V51.5208H120.107V49.9839C120.727 49.9839 121.039 49.8059 121.039 49.4501C121.039 49.3068 120.876 49.0103 120.544 48.5655L118.57 45.9166L117.325 46.8012Z" fill="black"/>
<path d="M133.64 45.457C133.64 47.0285 133.908 48.2146 134.448 49.0054C134.984 49.7961 135.792 50.1914 136.868 50.1914C138.009 50.1914 139.06 49.6132 140.022 48.4518L141.371 49.2623C140.821 50.0531 140.027 50.7104 138.996 51.2243C137.964 51.7383 136.824 52.0002 135.574 52.0002C133.655 52.0002 132.014 51.4171 130.65 50.2557C129.286 49.0943 128.602 47.5227 128.602 45.541C128.602 43.5642 129.261 42.0074 130.585 40.8807C131.909 39.7539 133.496 39.1855 135.356 39.1855C137.225 39.1855 138.758 39.7045 139.953 40.7423C141.148 41.7801 141.748 43.3517 141.748 45.457H133.64V45.457ZM133.625 43.9941H137.3C137.24 41.8592 136.615 40.7966 135.425 40.7966C134.825 40.7966 134.374 41.0635 134.076 41.5923C133.779 42.1211 133.625 42.9217 133.625 43.9941Z" fill="black"/>
<path d="M149.811 41.2267V47.4092C149.811 48.442 149.881 49.124 150.015 49.4601C150.148 49.7912 150.431 49.9592 150.858 49.9592C151.497 49.9592 152.008 49.5639 152.4 48.7732L153.823 49.2525C153.089 51.086 151.512 52.0052 149.102 52.0052C147.773 52.0052 146.776 51.684 146.107 51.0415C145.437 50.3991 145.105 49.4354 145.105 48.1554V41.2366H143.375V39.6749L143.737 39.6897C144.907 39.6897 145.909 39.3191 146.742 38.5728C147.575 37.8315 148.081 36.8826 148.254 35.7361H149.806V39.6749H153.382V41.2366H149.811V41.2267Z" fill="black"/>
</g>
<defs>
<clipPath id="clip0_5_2">
<rect width="154" height="52" fill="white"/>
</clipPath>
</defs>
</svg>
