<svg width="26" height="19" viewBox="0 0 26 19" fill="none" xmlns="http://www.w3.org/2000/svg">
<path d="M0 1.3C0 0.955219 0.136964 0.624559 0.380761 0.380761C0.624558 0.136964 0.955218 0 1.3 0H24.7C25.0448 0 25.3754 0.136964 25.6192 0.380761C25.863 0.624559 26 0.955219 26 1.3C26 1.64478 25.863 1.97544 25.6192 2.21924C25.3754 2.46304 25.0448 2.6 24.7 2.6H1.3C0.955218 2.6 0.624558 2.46304 0.380761 2.21924C0.136964 1.97544 0 1.64478 0 1.3ZM0 9.1416C0 8.79682 0.136964 8.46616 0.380761 8.22236C0.624558 7.97856 0.955218 7.8416 1.3 7.8416H24.7C25.0448 7.8416 25.3754 7.97856 25.6192 8.22236C25.863 8.46616 26 8.79682 26 9.1416C26 9.48638 25.863 9.81704 25.6192 10.0608C25.3754 10.3046 25.0448 10.4416 24.7 10.4416H1.3C0.955218 10.4416 0.624558 10.3046 0.380761 10.0608C0.136964 9.81704 0 9.48638 0 9.1416ZM1.3 15.6832C0.955218 15.6832 0.624558 15.8202 0.380761 16.064C0.136964 16.3078 0 16.6384 0 16.9832C0 17.328 0.136964 17.6586 0.380761 17.9024C0.624558 18.1462 0.955218 18.2832 1.3 18.2832H24.7C25.0448 18.2832 25.3754 18.1462 25.6192 17.9024C25.863 17.6586 26 17.328 26 16.9832C26 16.6384 25.863 16.3078 25.6192 16.064C25.3754 15.8202 25.0448 15.6832 24.7 15.6832H1.3Z" fill="black"/>
</svg>
