<svg width="12" height="6" viewBox="0 0 12 6" fill="none" xmlns="http://www.w3.org/2000/svg">
<path d="M5.91875e-05 5.00446C-0.000376643 4.87639 0.0278826 4.74984 0.082759 4.63412C0.137636 4.51841 0.217736 4.41646 0.317173 4.33577L5.45954 0.195025C5.6129 0.0689321 5.80526 7.38715e-08 6.00378 7.15042e-08C6.2023 6.91369e-08 6.39466 0.0689321 6.54801 0.195025L11.6904 4.48151C11.8654 4.62703 11.9755 4.83613 11.9964 5.06282C12.0173 5.28952 11.9473 5.51523 11.8018 5.6903C11.6563 5.86537 11.4473 5.97547 11.2206 5.99637C10.994 6.01727 10.7684 5.94726 10.5933 5.80175L5.99949 1.96963L1.40564 5.67315C1.27984 5.77799 1.12665 5.84458 0.964191 5.86505C0.801735 5.88552 0.636816 5.85902 0.488949 5.78867C0.341082 5.71833 0.216456 5.60708 0.129815 5.46811C0.0431739 5.32913 -0.00185388 5.16823 5.91875e-05 5.00446Z" fill="#070202"/>
</svg>
