<svg width="12" height="12" viewBox="0 0 12 12" fill="none" xmlns="http://www.w3.org/2000/svg">
<path d="M11.577 7.2C11.6328 7.19992 11.688 7.21089 11.7395 7.23227C11.7911 7.25364 11.8378 7.28501 11.8771 7.32456C11.9165 7.36411 11.9476 7.41106 11.9687 7.46269C11.9898 7.51433 12.0004 7.56963 12 7.6254V9.5478C12.0004 9.60332 11.9899 9.65838 11.969 9.70981C11.948 9.76125 11.9172 9.80806 11.8782 9.84758C11.8392 9.88709 11.7928 9.91852 11.7416 9.94007C11.6904 9.96163 11.6355 9.97289 11.58 9.9732C11.5245 9.97289 11.4696 9.96163 11.4184 9.94007C11.3672 9.91852 11.3208 9.88709 11.2818 9.84758C11.2428 9.80806 11.212 9.76125 11.1911 9.70981C11.1702 9.65838 11.1596 9.60332 11.16 9.5478V8.8728C10.0674 10.7064 8.03941 12 5.85421 12C3.20821 12 0.990611 10.3674 0.0288107 7.851C-0.0115727 7.74616 -0.00902854 7.62963 0.0358922 7.52664C0.080813 7.42366 0.164494 7.34252 0.268811 7.3008C0.484811 7.2162 0.728411 7.3248 0.812411 7.5438C1.65241 9.741 3.56521 11.1498 5.85421 11.1498C7.87681 11.1498 9.76621 9.8406 10.6464 8.0574L9.76381 8.0634C9.70829 8.06348 9.6533 8.05261 9.60198 8.03142C9.55066 8.01023 9.50403 7.97913 9.46474 7.93989C9.42545 7.90066 9.39429 7.85407 9.37302 7.80278C9.35176 7.7515 9.34081 7.69652 9.34081 7.641C9.33937 7.52891 9.38248 7.42084 9.46066 7.34051C9.53885 7.26019 9.64573 7.21418 9.75781 7.2126L11.577 7.2ZM6.14701 0C8.79181 0 11.01 1.6326 11.9718 4.149C12.0122 4.25384 12.0097 4.37037 11.9647 4.47336C11.9198 4.57634 11.8361 4.65748 11.7318 4.6992C11.6802 4.71933 11.6251 4.729 11.5697 4.72766C11.5143 4.72631 11.4598 4.71398 11.4092 4.69137C11.3586 4.66876 11.313 4.63633 11.2751 4.59596C11.2372 4.55559 11.2076 4.50808 11.1882 4.4562C10.3482 2.259 8.43541 0.8502 6.14641 0.8502C4.12381 0.8502 2.23441 2.1594 1.35421 3.9426L2.23681 3.9366C2.29233 3.93652 2.34732 3.94739 2.39864 3.96858C2.44996 3.98977 2.49659 4.02087 2.53588 4.06011C2.57517 4.09934 2.60634 4.14593 2.6276 4.19722C2.64887 4.2485 2.65981 4.30348 2.65981 4.359C2.66125 4.47109 2.61815 4.57916 2.53996 4.65949C2.46177 4.73981 2.3549 4.78582 2.24281 4.7874L0.423011 4.8C0.367236 4.80008 0.311999 4.78912 0.260485 4.76774C0.208971 4.74636 0.162201 4.71499 0.122874 4.67544C0.0835478 4.63589 0.0524431 4.58894 0.0313554 4.53731C0.0102676 4.48567 -0.000385524 4.43037 1.06576e-05 4.3746V2.4522C1.06576e-05 2.217 0.187811 2.0268 0.420011 2.0268C0.651611 2.0268 0.840011 2.217 0.840011 2.4522V3.1272C1.93261 1.2936 3.96061 0 6.14581 0H6.14701Z" fill="#3D3D3D"/>
</svg>
