<svg width="11" height="22" viewBox="0 0 11 22" fill="none" xmlns="http://www.w3.org/2000/svg">
<path d="M1.82515 0.000107917C2.05996 -0.000689334 2.29196 0.0511181 2.50411 0.151725C2.71626 0.252332 2.90316 0.399183 3.05109 0.581483L10.6425 10.0092C10.8736 10.2903 11 10.643 11 11.0069C11 11.3709 10.8736 11.7235 10.6425 12.0047L2.7839 21.4324C2.51712 21.7533 2.13376 21.955 1.71816 21.9934C1.30255 22.0317 0.888752 21.9033 0.567782 21.6366C0.246812 21.3699 0.0449668 20.9867 0.00664914 20.5712C-0.0316685 20.1557 0.0966799 19.742 0.36346 19.4211L7.38901 10.9991L0.599219 2.57701C0.407025 2.34637 0.284939 2.06552 0.247407 1.76768C0.209876 1.46985 0.258468 1.16749 0.387436 0.896405C0.516404 0.625316 0.720349 0.396834 0.975141 0.237994C1.22993 0.0791522 1.5249 -0.00339782 1.82515 0.000107917Z" fill="white"/>
</svg>
