<svg width="19" height="17" viewBox="0 0 19 17" fill="none" xmlns="http://www.w3.org/2000/svg">
<path fill-rule="evenodd" clip-rule="evenodd" d="M13.4582 10.9637L18.5015 15.5366C18.6788 15.6974 18.7783 15.9155 18.7782 16.1429C18.7782 16.3703 18.6785 16.5884 18.5011 16.7491C18.3237 16.9098 18.0831 17.0001 17.8323 17C17.5816 16.9999 17.3411 16.9095 17.1638 16.7487L12.1205 12.1758C10.6128 13.2346 8.71691 13.7328 6.81848 13.5692C4.92005 13.4055 3.16167 12.5923 1.90107 11.2949C0.640459 9.99743 -0.0276856 8.31329 0.0325549 6.58505C0.0927953 4.85682 0.876895 3.21429 2.22534 1.99163C3.57379 0.768974 5.3853 0.0580178 7.29134 0.0033968C9.19738 -0.0512242 11.0548 0.554593 12.4857 1.69761C13.9166 2.84062 14.8135 4.43497 14.994 6.15631C15.1745 7.87765 14.625 9.59668 13.4572 10.9637H13.4582ZM7.52893 11.8995C9.02066 11.8995 10.4513 11.3622 11.5061 10.4058C12.5609 9.44939 13.1535 8.15221 13.1535 6.79964C13.1535 5.44706 12.5609 4.14988 11.5061 3.19347C10.4513 2.23705 9.02066 1.69975 7.52893 1.69975C6.0372 1.69975 4.60657 2.23705 3.55176 3.19347C2.49695 4.14988 1.90436 5.44706 1.90436 6.79964C1.90436 8.15221 2.49695 9.44939 3.55176 10.4058C4.60657 11.3622 6.0372 11.8995 7.52893 11.8995Z" fill="black"/>
</svg>
